<svg width="304" height="304" viewBox="0 0 304 304" fill="none" xmlns="http://www.w3.org/2000/svg">
<rect width="304" height="304" rx="20" fill="url(#paint0_linear_402_401)"/>
<path d="M79.9453 183L63.8125 140.734H75.1406L84.4375 170.539L85.0234 173.508L85.6094 170.539L94.8672 140.734H106.195L90.1406 183H79.9453ZM131.062 183.781C127.807 183.781 124.852 183.247 122.195 182.18C119.539 181.112 117.26 179.654 115.359 177.805C113.458 175.982 111.987 173.833 110.945 171.359C109.93 168.859 109.422 166.19 109.422 163.352V161.789C109.422 158.56 109.93 155.617 110.945 152.961C111.961 150.279 113.38 147.974 115.203 146.047C117.026 144.12 119.188 142.622 121.688 141.555C124.188 140.487 126.909 139.953 129.852 139.953C132.898 139.953 135.607 140.461 137.977 141.477C140.372 142.466 142.404 143.872 144.07 145.695C145.711 147.518 146.961 149.719 147.82 152.297C148.68 154.849 149.109 157.674 149.109 160.773V165.383H120.438V165.5C120.802 167.193 121.271 168.56 121.844 169.602C122.417 170.617 123.185 171.542 124.148 172.375C125.138 173.234 126.271 173.898 127.547 174.367C128.823 174.836 130.216 175.07 131.727 175.07C133.862 175.07 135.932 174.667 137.938 173.859C139.943 173.052 141.57 171.841 142.82 170.227L148.25 176.086C146.87 178.039 144.682 179.81 141.688 181.398C138.693 182.987 135.151 183.781 131.062 183.781ZM129.773 148.742C128.549 148.742 127.43 148.964 126.414 149.406C125.398 149.823 124.513 150.435 123.758 151.242C122.977 152.049 122.326 153.013 121.805 154.133C121.284 155.253 120.893 156.503 120.633 157.883H138.445V157.023C138.445 155.878 138.237 154.797 137.82 153.781C137.404 152.766 136.831 151.88 136.102 151.125C135.372 150.396 134.474 149.823 133.406 149.406C132.365 148.964 131.154 148.742 129.773 148.742ZM156.867 123H180.5V174.172H192.609V183H156.867V174.172H169.523V131.867H156.867V123ZM197.164 161.477C197.164 158.404 197.607 155.565 198.492 152.961C199.378 150.331 200.68 148.052 202.398 146.125C204.091 144.198 206.161 142.688 208.609 141.594C211.083 140.5 213.909 139.953 217.086 139.953C220.263 139.953 223.089 140.5 225.562 141.594C228.036 142.688 230.133 144.198 231.852 146.125C233.544 148.052 234.833 150.331 235.719 152.961C236.604 155.565 237.047 158.404 237.047 161.477V162.297C237.047 165.396 236.604 168.26 235.719 170.891C234.833 173.495 233.544 175.76 231.852 177.688C230.159 179.615 228.076 181.125 225.602 182.219C223.128 183.286 220.315 183.82 217.164 183.82C213.987 183.82 211.148 183.286 208.648 182.219C206.174 181.125 204.091 179.615 202.398 177.688C200.68 175.76 199.378 173.495 198.492 170.891C197.607 168.26 197.164 165.396 197.164 162.297V161.477ZM208.023 162.297C208.023 164.068 208.193 165.734 208.531 167.297C208.87 168.833 209.404 170.174 210.133 171.32C210.862 172.492 211.799 173.417 212.945 174.094C214.117 174.771 215.523 175.109 217.164 175.109C218.753 175.109 220.12 174.771 221.266 174.094C222.411 173.417 223.349 172.492 224.078 171.32C224.781 170.174 225.302 168.833 225.641 167.297C225.979 165.734 226.148 164.068 226.148 162.297V161.477C226.148 159.758 225.979 158.13 225.641 156.594C225.302 155.057 224.781 153.703 224.078 152.531C223.349 151.359 222.411 150.435 221.266 149.758C220.12 149.081 218.727 148.742 217.086 148.742C215.471 148.742 214.091 149.081 212.945 149.758C211.799 150.435 210.862 151.359 210.133 152.531C209.404 153.703 208.87 155.057 208.531 156.594C208.193 158.13 208.023 159.758 208.023 161.477V162.297Z" fill="url(#paint1_linear_402_401)"/>
<defs>
<linearGradient id="paint0_linear_402_401" x1="5.39579e-07" y1="-111.5" x2="304" y2="400.5" gradientUnits="userSpaceOnUse">
<stop stop-color="#474747"/>
<stop offset="1" stop-color="#131313"/>
</linearGradient>
<linearGradient id="paint1_linear_402_401" x1="18.5" y1="183" x2="293" y2="152" gradientUnits="userSpaceOnUse">
<stop stop-color="#1BE223"/>
<stop offset="1" stop-color="#EACD38"/>
</linearGradient>
</defs>
</svg>
