<svg width="181" height="90" viewBox="0 0 181 90" fill="none" xmlns="http://www.w3.org/2000/svg">
<path d="M18.9453 76L2.8125 33.7344H14.1406L23.4375 63.5391L24.0234 66.5078L24.6094 63.5391L33.8672 33.7344H45.1953L29.1406 76H18.9453ZM70.0625 76.7812C66.8073 76.7812 63.8516 76.2474 61.1953 75.1797C58.5391 74.112 56.2604 72.6536 54.3594 70.8047C52.4583 68.9818 50.987 66.8333 49.9453 64.3594C48.9297 61.8594 48.4219 59.1901 48.4219 56.3516V54.7891C48.4219 51.5599 48.9297 48.6172 49.9453 45.9609C50.9609 43.2786 52.3802 40.974 54.2031 39.0469C56.026 37.1198 58.1875 35.6224 60.6875 34.5547C63.1875 33.487 65.9089 32.9531 68.8516 32.9531C71.8984 32.9531 74.6068 33.4609 76.9766 34.4766C79.3724 35.4661 81.4036 36.8724 83.0703 38.6953C84.7109 40.5182 85.9609 42.7188 86.8203 45.2969C87.6797 47.849 88.1094 50.6745 88.1094 53.7734V58.3828H59.4375V58.5C59.8021 60.1927 60.2708 61.5599 60.8438 62.6016C61.4167 63.6172 62.1849 64.5417 63.1484 65.375C64.138 66.2344 65.2708 66.8984 66.5469 67.3672C67.8229 67.8359 69.2161 68.0703 70.7266 68.0703C72.862 68.0703 74.9323 67.6667 76.9375 66.8594C78.9427 66.0521 80.5703 64.8411 81.8203 63.2266L87.25 69.0859C85.8698 71.0391 83.6823 72.8099 80.6875 74.3984C77.6927 75.987 74.151 76.7812 70.0625 76.7812ZM68.7734 41.7422C67.5495 41.7422 66.4297 41.9635 65.4141 42.4062C64.3984 42.8229 63.513 43.4349 62.7578 44.2422C61.9766 45.0495 61.3255 46.013 60.8047 47.1328C60.2839 48.2526 59.8932 49.5026 59.6328 50.8828H77.4453V50.0234C77.4453 48.8776 77.237 47.7969 76.8203 46.7812C76.4036 45.7656 75.8307 44.8802 75.1016 44.125C74.3724 43.3958 73.474 42.8229 72.4062 42.4062C71.3646 41.9635 70.1536 41.7422 68.7734 41.7422ZM95.8672 16H119.5V67.1719H131.609V76H95.8672V67.1719H108.523V24.8672H95.8672V16ZM136.164 54.4766C136.164 51.4036 136.607 48.5651 137.492 45.9609C138.378 43.3307 139.68 41.0521 141.398 39.125C143.091 37.1979 145.161 35.6875 147.609 34.5938C150.083 33.5 152.909 32.9531 156.086 32.9531C159.263 32.9531 162.089 33.5 164.562 34.5938C167.036 35.6875 169.133 37.1979 170.852 39.125C172.544 41.0521 173.833 43.3307 174.719 45.9609C175.604 48.5651 176.047 51.4036 176.047 54.4766V55.2969C176.047 58.3958 175.604 61.2604 174.719 63.8906C173.833 66.4948 172.544 68.7604 170.852 70.6875C169.159 72.6146 167.076 74.125 164.602 75.2188C162.128 76.2865 159.315 76.8203 156.164 76.8203C152.987 76.8203 150.148 76.2865 147.648 75.2188C145.174 74.125 143.091 72.6146 141.398 70.6875C139.68 68.7604 138.378 66.4948 137.492 63.8906C136.607 61.2604 136.164 58.3958 136.164 55.2969V54.4766ZM147.023 55.2969C147.023 57.0677 147.193 58.7344 147.531 60.2969C147.87 61.8333 148.404 63.1745 149.133 64.3203C149.862 65.4922 150.799 66.4167 151.945 67.0938C153.117 67.7708 154.523 68.1094 156.164 68.1094C157.753 68.1094 159.12 67.7708 160.266 67.0938C161.411 66.4167 162.349 65.4922 163.078 64.3203C163.781 63.1745 164.302 61.8333 164.641 60.2969C164.979 58.7344 165.148 57.0677 165.148 55.2969V54.4766C165.148 52.7578 164.979 51.1302 164.641 49.5938C164.302 48.0573 163.781 46.7031 163.078 45.5312C162.349 44.3594 161.411 43.4349 160.266 42.7578C159.12 42.0807 157.727 41.7422 156.086 41.7422C154.471 41.7422 153.091 42.0807 151.945 42.7578C150.799 43.4349 149.862 44.3594 149.133 45.5312C148.404 46.7031 147.87 48.0573 147.531 49.5938C147.193 51.1302 147.023 52.7578 147.023 54.4766V55.2969Z" fill="url(#paint0_linear_402_401)"/>
<defs>
<linearGradient id="paint0_linear_402_401" x1="-42.5" y1="76" x2="232" y2="45" gradientUnits="userSpaceOnUse">
<stop stop-color="#1BE223"/>
<stop offset="1" stop-color="#EACD38"/>
</linearGradient>
</defs>
</svg>
